<svg version="1.2" xmlns="http://www.w3.org/2000/svg" viewBox="0 0 292 262" width="292" height="262">
	<style>
		.s0 { fill: #93eccc } 
		.s1 { fill: #07c07e } 
		.s2 { fill: #ffffff } 
		.s3 { fill: #f3fffb } 
	</style>
	<path class="s0" d="m39.09 163.98c1.77 2.17 4.64 2.17 6.41 0l38.16-46.69c1.77-2.16 0.94-3.92-1.86-3.92h-20.26c-2.8 0-4.7-2.24-4.1-4.97 10.42-47.45 52.76-83.07 103.29-83.07 58.33 0 105.78 47.45 105.78 105.77 0 58.33-47.45 105.78-105.78 105.78-6.99 0-12.66 5.67-12.66 12.66 0 6.99 5.67 12.66 12.66 12.66 72.29 0 131.1-58.81 131.1-131.1 0-72.29-58.81-131.1-131.1-131.1-64.53 0-118.29 46.88-129.09 108.37-0.48 2.76-3.04 5-5.84 5h-23.01c-2.8 0-3.63 1.76-1.86 3.93z"/>
	<g id="Folder 1">
		<path class="s1" d="m97.04 153.63c-19.7-18.46 10.9-77.01 54.33-84.43 48.73-8.33 82.91 27.93 74.45 69.74-9.32 46.13-70.91 69.19-88.08 52.83-10.18-9.72 6.86-21.41-5.76-33.25-12.63-11.84-25.72 3.74-34.92-4.87z"/>
		<path class="s2" d="m203.86 140.42c0-3.37-2.73-6.1-6.11-6.1-1.66 0-3.16 0.66-4.26 1.73q-0.06 0.05-0.1 0.09c-0.3 0.28-0.6 0.48-0.94 0.66q-0.92 0.53-2.03 0.54c-0.92 0-1.92-0.43-2.46-0.78-0.53-0.34-1.49-1.18-1.93-1.64q-0.35-0.38-0.84-0.93l-4.66-5.3c3.22-4.15 6.63-8.56 8.42-10.89 0.79-1.03 1.27-2.3 1.27-3.7 0-3.38-3.04-6.37-6.43-6.37-1.95 0-3.68 0.92-4.8 2.35-1.5 1.91-4.1 5.26-6.78 8.7l-2.52-3.1c-3.91-5.01-10.01-8.23-16.87-8.23-11.8 0-21.38 9.56-21.38 21.35 0 11.79 9.58 21.35 21.38 21.35 5.21 0 9.98-1.86 13.69-4.94 2.42-1.94 4.56-4.21 6.36-6.73l4.47 5.06c0.16 0.19 0.36 0.41 0.48 0.54 3.07 3.38 7.53 5.47 12.46 5.47 4.42 0 9.08-2.52 11.44-4.49 1.34-1.12 2.14-2.78 2.14-4.64zm-51.04-2.4c-5.06 0-9.16-4.1-9.16-9.16 0-5.06 4.1-9.15 9.16-9.15 2.86 0 5.34 1.36 7.06 3.37 1.19 1.39 4.77 5.43 4.77 5.43 0 0-0.76 0.99-1.65 2.15-0.94 1.23-2.03 2.64-2.54 3.27-1.76 2.18-3.91 4.09-7.64 4.09z"/>
		<path class="s3" d="m160.45 133.93c-1.75 2.17-3.9 4.08-7.63 4.08-5.05 0-9.15-4.08-9.16-9.12 0-0.08 0-0.39 0.01-0.48 0.27-6.19 6.04-17.12 14.15-20.37-1.59-0.38-3.29-0.59-5-0.59-11.87 0-21.31 9.59-21.38 21.32 0 0.01 0 0.06 0 0.08 0 11.87 9.58 21.39 21.38 21.39q2.45-0.01 4.74-0.54z"/>
		<path class="s0" d="m164.65 128.51c0 0-1.16 1.49-2.43 3.14-1.16 1.52-2.83 3.91-4.83 5.12-2.78 1.68-5.8 2.99-10.58 3.03-6.04 0.06-11.39-2.71-15-6.99 1.84 9.92 10.5 17.43 20.97 17.43 5.17 0 9.92-1.84 13.62-4.9 2.44-1.95 4.66-4.32 6.47-6.86z"/>
	</g>
</svg>